<?xml version="1.0" standalone="no"?><!DOCTYPE svg PUBLIC "-//W3C//DTD SVG 1.1//EN" "http://www.w3.org/Graphics/SVG/1.1/DTD/svg11.dtd"><svg t="1707237610444" class="icon" viewBox="0 0 1024 1024" version="1.1" xmlns="http://www.w3.org/2000/svg" p-id="254019" id="mx_n_1707237610444" xmlns:xlink="http://www.w3.org/1999/xlink" width="200" height="200"><path d="M873.947 1021.301H148.955c-80.917 0-147.104-66.187-147.104-147.105V149.204C1.85 68.286 68.038 2.1 148.955 2.1h725.09c80.821 0 147.009 66.187 147.009 147.104v725.089c0 80.821-66.188 147.008-147.107 147.008z m0 0" fill="#2962ff" p-id="254020" data-spm-anchor-id="a313x.search_index.0.i15.553c3a81MaYiLQ" class="selected"></path><path d="M533.576 208.191c-11.856-11.475-31.259-11.476-43.116-0.001L203.559 485.82C191.701 497.294 182 520.182 182 536.682v269.99c0 16.5 13.5 30 30 30h164.67c16.5 0 29.889-13.5 29.752-29.999l-1.375-166.514c-0.136-16.499 13.252-29.999 29.752-29.999h150.677c16.5 0 30 13.5 30 30v166.512c0 16.5 13.5 30 30 30H812c16.5 0 30-13.5 30-30v-269.99c0-16.5-9.701-39.389-21.558-50.863L533.576 208.191z" fill="#FFFFFF" p-id="254021"></path></svg>